<?xml version="1.0" encoding="utf-8"?>
<!-- Generator: Adobe Illustrator 26.2.1, SVG Export Plug-In . SVG Version: 6.00 Build 0)  -->
<svg version="1.1" id="Layer_1" xmlns="http://www.w3.org/2000/svg" xmlns:xlink="http://www.w3.org/1999/xlink" x="0px" y="0px"
	 viewBox="0 0 25 25" style="enable-background:new 0 0 25 25;" xml:space="preserve">
<style type="text/css">
	.st0{fill:#ACDBE3;}
</style>
<path class="st0" d="M23.2,10.7C23.1,10.1,23,9.6,22.8,9l1.9-1.1l-1.8-3.2L21,5.8c-0.5-0.6-1-1.2-1.6-1.7l0.9-1.5l-3.2-1.8l-0.9,1.6
	C15.6,2.2,15,2,14.3,1.9V0h-3.7v1.8C9.8,1.9,9.1,2.1,8.4,2.4L7.3,0.6l-3.1,2l1.1,1.8C4.9,4.8,4.4,5.2,4.1,5.7l-2-1.2L0.3,7.6l2,1.2
	C2.1,9.4,1.9,10,1.8,10.7H0v3.7h1.8c0.1,0.8,0.3,1.5,0.6,2.2l-1.5,0.9l1.8,3.2l1.6-1c0.4,0.4,0.8,0.8,1.2,1.2l-0.8,1.5l3.2,1.8
	l0.8-1.5c0.6,0.2,1.3,0.4,2,0.5V25h3.7v-1.8c0.6-0.1,1.2-0.3,1.8-0.5l1,1.7l3.1-1.9l-1-1.5c0.5-0.4,1-0.9,1.5-1.5l1.9,1.1l1.8-3.2
	l-1.9-1.1c0.2-0.6,0.4-1.3,0.5-2H25v-3.6H23.2z M12.5,17.9c-3,0-5.4-2.4-5.4-5.4c0-2.7,2-4.9,4.5-5.3V5.4h2v1.8
	c2.5,0.5,4.3,2.7,4.3,5.3C17.9,15.5,15.5,17.9,12.5,17.9z"/>
</svg>
